<mxfile host="Electron" modified="2024-08-15T05:08:26.437Z" agent="Mozilla/5.0 (Macintosh; Intel Mac OS X 10_15_7) AppleWebKit/537.36 (KHTML, like Gecko) draw.io/24.4.8 Chrome/124.0.6367.207 Electron/30.0.6 Safari/537.36" etag="iKptesFvEma_XtrgcgVj" version="24.4.8" type="device">
  <diagram name="Page-1" id="8Pnf6xCYjv6e8eIN6UZ4">
    <mxGraphModel dx="954" dy="727" grid="0" gridSize="10" guides="1" tooltips="1" connect="1" arrows="0" fold="1" page="1" pageScale="1" pageWidth="850" pageHeight="1100" background="#F8F7F7" math="0" shadow="1">
      <root>
        <mxCell id="0" />
        <mxCell id="1" parent="0" />
        <mxCell id="9Yyixxu93VMR50IHoDll-1" value="" style="image;sketch=0;aspect=fixed;html=1;points=[];align=center;fontSize=12;image=img/lib/mscae/Docker.svg;" parent="1" vertex="1">
          <mxGeometry x="257" y="178" width="59.76" height="49" as="geometry" />
        </mxCell>
        <mxCell id="9Yyixxu93VMR50IHoDll-2" value="" style="rounded=1;whiteSpace=wrap;html=1;fillColor=#fff2cc;strokeColor=#d6b656;" parent="1" vertex="1">
          <mxGeometry x="151" y="249" width="273" height="89" as="geometry" />
        </mxCell>
        <mxCell id="9Yyixxu93VMR50IHoDll-3" value="Host" style="text;html=1;align=center;verticalAlign=middle;whiteSpace=wrap;rounded=0;" parent="1" vertex="1">
          <mxGeometry x="255" y="249" width="60" height="30" as="geometry" />
        </mxCell>
        <mxCell id="9Yyixxu93VMR50IHoDll-4" value="" style="rounded=1;whiteSpace=wrap;html=1;dashed=1;fillColor=#ffe6cc;strokeColor=#d79b00;" parent="1" vertex="1">
          <mxGeometry x="164" y="285" width="70" height="48" as="geometry" />
        </mxCell>
        <mxCell id="9Yyixxu93VMR50IHoDll-5" value="" style="rounded=1;whiteSpace=wrap;html=1;dashed=1;fillColor=#ffe6cc;strokeColor=#d79b00;" parent="1" vertex="1">
          <mxGeometry x="255" y="285" width="70" height="48" as="geometry" />
        </mxCell>
        <mxCell id="9Yyixxu93VMR50IHoDll-6" value="" style="rounded=1;whiteSpace=wrap;html=1;dashed=1;fillColor=#ffe6cc;strokeColor=#d79b00;" parent="1" vertex="1">
          <mxGeometry x="344" y="284" width="70" height="48" as="geometry" />
        </mxCell>
        <mxCell id="9Yyixxu93VMR50IHoDll-7" value="Container2" style="text;html=1;align=center;verticalAlign=middle;whiteSpace=wrap;rounded=0;" parent="1" vertex="1">
          <mxGeometry x="260" y="282" width="60" height="30" as="geometry" />
        </mxCell>
        <mxCell id="9Yyixxu93VMR50IHoDll-8" value="Container3" style="text;html=1;align=center;verticalAlign=middle;whiteSpace=wrap;rounded=0;" parent="1" vertex="1">
          <mxGeometry x="349" y="282" width="60" height="30" as="geometry" />
        </mxCell>
        <mxCell id="9Yyixxu93VMR50IHoDll-9" value="Container1" style="text;html=1;align=center;verticalAlign=middle;whiteSpace=wrap;rounded=0;" parent="1" vertex="1">
          <mxGeometry x="171" y="282" width="60" height="30" as="geometry" />
        </mxCell>
        <mxCell id="9Yyixxu93VMR50IHoDll-10" value="&lt;font style=&quot;font-size: 10px;&quot;&gt;namespaces&lt;/font&gt;" style="text;html=1;align=center;verticalAlign=middle;whiteSpace=wrap;rounded=0;" parent="1" vertex="1">
          <mxGeometry x="326" y="302" width="106" height="31" as="geometry" />
        </mxCell>
        <mxCell id="9Yyixxu93VMR50IHoDll-13" value="&lt;font style=&quot;font-size: 10px;&quot;&gt;namespaces&lt;/font&gt;" style="text;html=1;align=center;verticalAlign=middle;whiteSpace=wrap;rounded=0;" parent="1" vertex="1">
          <mxGeometry x="240" y="302" width="106" height="31" as="geometry" />
        </mxCell>
        <mxCell id="9Yyixxu93VMR50IHoDll-14" value="&lt;font style=&quot;font-size: 10px;&quot;&gt;namespaces&lt;/font&gt;" style="text;html=1;align=center;verticalAlign=middle;whiteSpace=wrap;rounded=0;" parent="1" vertex="1">
          <mxGeometry x="149" y="301" width="106" height="31" as="geometry" />
        </mxCell>
        <mxCell id="9Yyixxu93VMR50IHoDll-15" value="" style="rounded=1;whiteSpace=wrap;html=1;perimeterSpacing=0;fillColor=#dae8fc;strokeColor=#6c8ebf;" parent="1" vertex="1">
          <mxGeometry x="151" y="356" width="273" height="75" as="geometry" />
        </mxCell>
        <mxCell id="9Yyixxu93VMR50IHoDll-17" value="" style="rounded=1;whiteSpace=wrap;html=1;fillColor=#d5e8d4;strokeColor=#82b366;" parent="1" vertex="1">
          <mxGeometry x="168.5" y="376" width="61" height="39" as="geometry" />
        </mxCell>
        <mxCell id="9Yyixxu93VMR50IHoDll-18" value="" style="rounded=1;whiteSpace=wrap;html=1;fillColor=#d5e8d4;strokeColor=#82b366;" parent="1" vertex="1">
          <mxGeometry x="256.38" y="376" width="61" height="39" as="geometry" />
        </mxCell>
        <mxCell id="9Yyixxu93VMR50IHoDll-19" value="" style="rounded=1;whiteSpace=wrap;html=1;fillColor=#d5e8d4;strokeColor=#82b366;" parent="1" vertex="1">
          <mxGeometry x="344" y="376" width="61" height="39" as="geometry" />
        </mxCell>
        <mxCell id="9Yyixxu93VMR50IHoDll-20" value="cgroups" style="text;html=1;align=center;verticalAlign=middle;whiteSpace=wrap;rounded=0;" parent="1" vertex="1">
          <mxGeometry x="345" y="380.5" width="60" height="30" as="geometry" />
        </mxCell>
        <mxCell id="9Yyixxu93VMR50IHoDll-21" value="cgroups" style="text;html=1;align=center;verticalAlign=middle;whiteSpace=wrap;rounded=0;" parent="1" vertex="1">
          <mxGeometry x="256.76" y="380.5" width="60" height="30" as="geometry" />
        </mxCell>
        <mxCell id="9Yyixxu93VMR50IHoDll-22" value="cgroups" style="text;html=1;align=center;verticalAlign=middle;whiteSpace=wrap;rounded=0;" parent="1" vertex="1">
          <mxGeometry x="172.5" y="375.5" width="60" height="30" as="geometry" />
        </mxCell>
        <mxCell id="9Yyixxu93VMR50IHoDll-23" value="" style="endArrow=none;html=1;rounded=0;entryX=0.5;entryY=1;entryDx=0;entryDy=0;exitX=0.5;exitY=0;exitDx=0;exitDy=0;" parent="1" source="9Yyixxu93VMR50IHoDll-22" target="9Yyixxu93VMR50IHoDll-14" edge="1">
          <mxGeometry width="50" height="50" relative="1" as="geometry">
            <mxPoint x="399" y="400" as="sourcePoint" />
            <mxPoint x="449" y="350" as="targetPoint" />
          </mxGeometry>
        </mxCell>
        <mxCell id="9Yyixxu93VMR50IHoDll-26" value="" style="endArrow=none;html=1;rounded=0;entryX=0.5;entryY=1;entryDx=0;entryDy=0;exitX=0.5;exitY=0;exitDx=0;exitDy=0;" parent="1" edge="1">
          <mxGeometry width="50" height="50" relative="1" as="geometry">
            <mxPoint x="378.5" y="376" as="sourcePoint" />
            <mxPoint x="377.5" y="332" as="targetPoint" />
          </mxGeometry>
        </mxCell>
        <mxCell id="9Yyixxu93VMR50IHoDll-27" value="" style="endArrow=none;html=1;rounded=0;entryX=0.5;entryY=1;entryDx=0;entryDy=0;exitX=0.5;exitY=0;exitDx=0;exitDy=0;" parent="1" edge="1">
          <mxGeometry width="50" height="50" relative="1" as="geometry">
            <mxPoint x="289" y="377" as="sourcePoint" />
            <mxPoint x="288" y="333" as="targetPoint" />
          </mxGeometry>
        </mxCell>
        <mxCell id="9Yyixxu93VMR50IHoDll-28" value="" style="shape=table;startSize=0;container=1;collapsible=0;childLayout=tableLayout;fontSize=16;fillColor=#f5f5f5;fontColor=#333333;strokeColor=#666666;" parent="1" vertex="1">
          <mxGeometry x="192" y="621" width="407" height="198" as="geometry" />
        </mxCell>
        <mxCell id="9Yyixxu93VMR50IHoDll-29" value="" style="shape=tableRow;horizontal=0;startSize=0;swimlaneHead=0;swimlaneBody=0;strokeColor=inherit;top=0;left=0;bottom=0;right=0;collapsible=0;dropTarget=0;fillColor=none;points=[[0,0.5],[1,0.5]];portConstraint=eastwest;fontSize=16;" parent="9Yyixxu93VMR50IHoDll-28" vertex="1">
          <mxGeometry width="407" height="39" as="geometry" />
        </mxCell>
        <mxCell id="9Yyixxu93VMR50IHoDll-30" value="" style="shape=partialRectangle;html=1;whiteSpace=wrap;connectable=0;strokeColor=inherit;overflow=hidden;fillColor=none;top=0;left=0;bottom=0;right=0;pointerEvents=1;fontSize=16;" parent="9Yyixxu93VMR50IHoDll-29" vertex="1">
          <mxGeometry width="102" height="39" as="geometry">
            <mxRectangle width="102" height="39" as="alternateBounds" />
          </mxGeometry>
        </mxCell>
        <mxCell id="9Yyixxu93VMR50IHoDll-31" value="&lt;font face=&quot;Times New Roman&quot;&gt;修改内核&lt;/font&gt;" style="shape=partialRectangle;html=1;whiteSpace=wrap;connectable=0;strokeColor=inherit;overflow=hidden;fillColor=none;top=0;left=0;bottom=0;right=0;pointerEvents=1;fontSize=16;" parent="9Yyixxu93VMR50IHoDll-29" vertex="1">
          <mxGeometry x="102" width="102" height="39" as="geometry">
            <mxRectangle width="102" height="39" as="alternateBounds" />
          </mxGeometry>
        </mxCell>
        <mxCell id="9Yyixxu93VMR50IHoDll-32" value="&lt;font face=&quot;Times New Roman&quot;&gt;LKM&lt;/font&gt;" style="shape=partialRectangle;html=1;whiteSpace=wrap;connectable=0;strokeColor=inherit;overflow=hidden;fillColor=none;top=0;left=0;bottom=0;right=0;pointerEvents=1;fontSize=16;" parent="9Yyixxu93VMR50IHoDll-29" vertex="1">
          <mxGeometry x="204" width="101" height="39" as="geometry">
            <mxRectangle width="101" height="39" as="alternateBounds" />
          </mxGeometry>
        </mxCell>
        <mxCell id="9Yyixxu93VMR50IHoDll-49" value="&lt;font face=&quot;Times New Roman&quot;&gt;eBPF&lt;/font&gt;" style="shape=partialRectangle;html=1;whiteSpace=wrap;connectable=0;strokeColor=inherit;overflow=hidden;fillColor=none;top=0;left=0;bottom=0;right=0;pointerEvents=1;fontSize=16;" parent="9Yyixxu93VMR50IHoDll-29" vertex="1">
          <mxGeometry x="305" width="102" height="39" as="geometry">
            <mxRectangle width="102" height="39" as="alternateBounds" />
          </mxGeometry>
        </mxCell>
        <mxCell id="9Yyixxu93VMR50IHoDll-33" value="" style="shape=tableRow;horizontal=0;startSize=0;swimlaneHead=0;swimlaneBody=0;strokeColor=inherit;top=0;left=0;bottom=0;right=0;collapsible=0;dropTarget=0;fillColor=none;points=[[0,0.5],[1,0.5]];portConstraint=eastwest;fontSize=16;" parent="9Yyixxu93VMR50IHoDll-28" vertex="1">
          <mxGeometry y="39" width="407" height="40" as="geometry" />
        </mxCell>
        <mxCell id="9Yyixxu93VMR50IHoDll-34" value="&lt;font face=&quot;Times New Roman&quot;&gt;功能&lt;/font&gt;" style="shape=partialRectangle;html=1;whiteSpace=wrap;connectable=0;strokeColor=inherit;overflow=hidden;fillColor=none;top=0;left=0;bottom=0;right=0;pointerEvents=1;fontSize=16;" parent="9Yyixxu93VMR50IHoDll-33" vertex="1">
          <mxGeometry width="102" height="40" as="geometry">
            <mxRectangle width="102" height="40" as="alternateBounds" />
          </mxGeometry>
        </mxCell>
        <mxCell id="9Yyixxu93VMR50IHoDll-35" value="" style="shape=partialRectangle;html=1;whiteSpace=wrap;connectable=0;strokeColor=inherit;overflow=hidden;fillColor=none;top=0;left=0;bottom=0;right=0;pointerEvents=1;fontSize=16;" parent="9Yyixxu93VMR50IHoDll-33" vertex="1">
          <mxGeometry x="102" width="102" height="40" as="geometry">
            <mxRectangle width="102" height="40" as="alternateBounds" />
          </mxGeometry>
        </mxCell>
        <mxCell id="9Yyixxu93VMR50IHoDll-36" value="" style="shape=partialRectangle;html=1;whiteSpace=wrap;connectable=0;strokeColor=inherit;overflow=hidden;fillColor=none;top=0;left=0;bottom=0;right=0;pointerEvents=1;fontSize=16;" parent="9Yyixxu93VMR50IHoDll-33" vertex="1">
          <mxGeometry x="204" width="101" height="40" as="geometry">
            <mxRectangle width="101" height="40" as="alternateBounds" />
          </mxGeometry>
        </mxCell>
        <mxCell id="9Yyixxu93VMR50IHoDll-50" value="&lt;font face=&quot;Times New Roman&quot;&gt;受限&lt;/font&gt;" style="shape=partialRectangle;html=1;whiteSpace=wrap;connectable=0;strokeColor=inherit;overflow=hidden;fillColor=none;top=0;left=0;bottom=0;right=0;pointerEvents=1;fontSize=16;" parent="9Yyixxu93VMR50IHoDll-33" vertex="1">
          <mxGeometry x="305" width="102" height="40" as="geometry">
            <mxRectangle width="102" height="40" as="alternateBounds" />
          </mxGeometry>
        </mxCell>
        <mxCell id="9Yyixxu93VMR50IHoDll-37" value="" style="shape=tableRow;horizontal=0;startSize=0;swimlaneHead=0;swimlaneBody=0;strokeColor=inherit;top=0;left=0;bottom=0;right=0;collapsible=0;dropTarget=0;fillColor=none;points=[[0,0.5],[1,0.5]];portConstraint=eastwest;fontSize=16;" parent="9Yyixxu93VMR50IHoDll-28" vertex="1">
          <mxGeometry y="79" width="407" height="40" as="geometry" />
        </mxCell>
        <mxCell id="9Yyixxu93VMR50IHoDll-38" value="&lt;font face=&quot;Times New Roman&quot;&gt;性能&lt;/font&gt;" style="shape=partialRectangle;html=1;whiteSpace=wrap;connectable=0;strokeColor=inherit;overflow=hidden;fillColor=none;top=0;left=0;bottom=0;right=0;pointerEvents=1;fontSize=16;" parent="9Yyixxu93VMR50IHoDll-37" vertex="1">
          <mxGeometry width="102" height="40" as="geometry">
            <mxRectangle width="102" height="40" as="alternateBounds" />
          </mxGeometry>
        </mxCell>
        <mxCell id="9Yyixxu93VMR50IHoDll-39" value="" style="shape=partialRectangle;html=1;whiteSpace=wrap;connectable=0;strokeColor=inherit;overflow=hidden;fillColor=none;top=0;left=0;bottom=0;right=0;pointerEvents=1;fontSize=16;" parent="9Yyixxu93VMR50IHoDll-37" vertex="1">
          <mxGeometry x="102" width="102" height="40" as="geometry">
            <mxRectangle width="102" height="40" as="alternateBounds" />
          </mxGeometry>
        </mxCell>
        <mxCell id="9Yyixxu93VMR50IHoDll-40" value="" style="shape=partialRectangle;html=1;whiteSpace=wrap;connectable=0;strokeColor=inherit;overflow=hidden;fillColor=none;top=0;left=0;bottom=0;right=0;pointerEvents=1;fontSize=16;" parent="9Yyixxu93VMR50IHoDll-37" vertex="1">
          <mxGeometry x="204" width="101" height="40" as="geometry">
            <mxRectangle width="101" height="40" as="alternateBounds" />
          </mxGeometry>
        </mxCell>
        <mxCell id="9Yyixxu93VMR50IHoDll-51" value="&lt;font face=&quot;Times New Roman&quot;&gt;受限&lt;/font&gt;" style="shape=partialRectangle;html=1;whiteSpace=wrap;connectable=0;strokeColor=inherit;overflow=hidden;fillColor=none;top=0;left=0;bottom=0;right=0;pointerEvents=1;fontSize=16;" parent="9Yyixxu93VMR50IHoDll-37" vertex="1">
          <mxGeometry x="305" width="102" height="40" as="geometry">
            <mxRectangle width="102" height="40" as="alternateBounds" />
          </mxGeometry>
        </mxCell>
        <mxCell id="9Yyixxu93VMR50IHoDll-41" style="shape=tableRow;horizontal=0;startSize=0;swimlaneHead=0;swimlaneBody=0;strokeColor=inherit;top=0;left=0;bottom=0;right=0;collapsible=0;dropTarget=0;fillColor=none;points=[[0,0.5],[1,0.5]];portConstraint=eastwest;fontSize=16;" parent="9Yyixxu93VMR50IHoDll-28" vertex="1">
          <mxGeometry y="119" width="407" height="40" as="geometry" />
        </mxCell>
        <mxCell id="9Yyixxu93VMR50IHoDll-42" value="&lt;font face=&quot;Times New Roman&quot;&gt;安全&lt;/font&gt;" style="shape=partialRectangle;html=1;whiteSpace=wrap;connectable=0;strokeColor=inherit;overflow=hidden;fillColor=none;top=0;left=0;bottom=0;right=0;pointerEvents=1;fontSize=16;" parent="9Yyixxu93VMR50IHoDll-41" vertex="1">
          <mxGeometry width="102" height="40" as="geometry">
            <mxRectangle width="102" height="40" as="alternateBounds" />
          </mxGeometry>
        </mxCell>
        <mxCell id="9Yyixxu93VMR50IHoDll-43" style="shape=partialRectangle;html=1;whiteSpace=wrap;connectable=0;strokeColor=inherit;overflow=hidden;fillColor=none;top=0;left=0;bottom=0;right=0;pointerEvents=1;fontSize=16;" parent="9Yyixxu93VMR50IHoDll-41" vertex="1">
          <mxGeometry x="102" width="102" height="40" as="geometry">
            <mxRectangle width="102" height="40" as="alternateBounds" />
          </mxGeometry>
        </mxCell>
        <mxCell id="9Yyixxu93VMR50IHoDll-44" style="shape=partialRectangle;html=1;whiteSpace=wrap;connectable=0;strokeColor=inherit;overflow=hidden;fillColor=none;top=0;left=0;bottom=0;right=0;pointerEvents=1;fontSize=16;" parent="9Yyixxu93VMR50IHoDll-41" vertex="1">
          <mxGeometry x="204" width="101" height="40" as="geometry">
            <mxRectangle width="101" height="40" as="alternateBounds" />
          </mxGeometry>
        </mxCell>
        <mxCell id="9Yyixxu93VMR50IHoDll-52" style="shape=partialRectangle;html=1;whiteSpace=wrap;connectable=0;strokeColor=inherit;overflow=hidden;fillColor=none;top=0;left=0;bottom=0;right=0;pointerEvents=1;fontSize=16;" parent="9Yyixxu93VMR50IHoDll-41" vertex="1">
          <mxGeometry x="305" width="102" height="40" as="geometry">
            <mxRectangle width="102" height="40" as="alternateBounds" />
          </mxGeometry>
        </mxCell>
        <mxCell id="9Yyixxu93VMR50IHoDll-45" style="shape=tableRow;horizontal=0;startSize=0;swimlaneHead=0;swimlaneBody=0;strokeColor=inherit;top=0;left=0;bottom=0;right=0;collapsible=0;dropTarget=0;fillColor=none;points=[[0,0.5],[1,0.5]];portConstraint=eastwest;fontSize=16;" parent="9Yyixxu93VMR50IHoDll-28" vertex="1">
          <mxGeometry y="159" width="407" height="39" as="geometry" />
        </mxCell>
        <mxCell id="9Yyixxu93VMR50IHoDll-46" value="&lt;font face=&quot;Times New Roman&quot;&gt;易部署&lt;/font&gt;" style="shape=partialRectangle;html=1;whiteSpace=wrap;connectable=0;strokeColor=inherit;overflow=hidden;fillColor=none;top=0;left=0;bottom=0;right=0;pointerEvents=1;fontSize=16;" parent="9Yyixxu93VMR50IHoDll-45" vertex="1">
          <mxGeometry width="102" height="39" as="geometry">
            <mxRectangle width="102" height="39" as="alternateBounds" />
          </mxGeometry>
        </mxCell>
        <mxCell id="9Yyixxu93VMR50IHoDll-47" style="shape=partialRectangle;html=1;whiteSpace=wrap;connectable=0;strokeColor=inherit;overflow=hidden;fillColor=none;top=0;left=0;bottom=0;right=0;pointerEvents=1;fontSize=16;" parent="9Yyixxu93VMR50IHoDll-45" vertex="1">
          <mxGeometry x="102" width="102" height="39" as="geometry">
            <mxRectangle width="102" height="39" as="alternateBounds" />
          </mxGeometry>
        </mxCell>
        <mxCell id="9Yyixxu93VMR50IHoDll-48" style="shape=partialRectangle;html=1;whiteSpace=wrap;connectable=0;strokeColor=inherit;overflow=hidden;fillColor=none;top=0;left=0;bottom=0;right=0;pointerEvents=1;fontSize=16;" parent="9Yyixxu93VMR50IHoDll-45" vertex="1">
          <mxGeometry x="204" width="101" height="39" as="geometry">
            <mxRectangle width="101" height="39" as="alternateBounds" />
          </mxGeometry>
        </mxCell>
        <mxCell id="9Yyixxu93VMR50IHoDll-53" style="shape=partialRectangle;html=1;whiteSpace=wrap;connectable=0;strokeColor=inherit;overflow=hidden;fillColor=none;top=0;left=0;bottom=0;right=0;pointerEvents=1;fontSize=16;" parent="9Yyixxu93VMR50IHoDll-45" vertex="1">
          <mxGeometry x="305" width="102" height="39" as="geometry">
            <mxRectangle width="102" height="39" as="alternateBounds" />
          </mxGeometry>
        </mxCell>
        <mxCell id="9Yyixxu93VMR50IHoDll-54" value="" style="verticalLabelPosition=bottom;verticalAlign=top;html=1;shape=mxgraph.basic.tick;fillColor=#000000;" parent="1" vertex="1">
          <mxGeometry x="536" y="753" width="21" height="19" as="geometry" />
        </mxCell>
        <mxCell id="9Yyixxu93VMR50IHoDll-56" value="" style="verticalLabelPosition=bottom;verticalAlign=top;html=1;shape=mxgraph.basic.tick;fillColor=#000000;" parent="1" vertex="1">
          <mxGeometry x="537" y="791" width="21" height="19" as="geometry" />
        </mxCell>
        <mxCell id="9Yyixxu93VMR50IHoDll-57" value="" style="verticalLabelPosition=bottom;verticalAlign=top;html=1;shape=mxgraph.basic.tick;fillColor=#000000;" parent="1" vertex="1">
          <mxGeometry x="435" y="792" width="21" height="19" as="geometry" />
        </mxCell>
        <mxCell id="9Yyixxu93VMR50IHoDll-58" value="" style="verticalLabelPosition=bottom;verticalAlign=top;html=1;shape=mxgraph.basic.tick;fillColor=#000000;" parent="1" vertex="1">
          <mxGeometry x="435" y="712" width="21" height="19" as="geometry" />
        </mxCell>
        <mxCell id="9Yyixxu93VMR50IHoDll-59" value="" style="verticalLabelPosition=bottom;verticalAlign=top;html=1;shape=mxgraph.basic.tick;fillColor=#000000;" parent="1" vertex="1">
          <mxGeometry x="435" y="671" width="21" height="19" as="geometry" />
        </mxCell>
        <mxCell id="9Yyixxu93VMR50IHoDll-60" value="" style="verticalLabelPosition=bottom;verticalAlign=top;html=1;shape=mxgraph.basic.tick;fillColor=#000000;" parent="1" vertex="1">
          <mxGeometry x="332" y="712" width="21" height="19" as="geometry" />
        </mxCell>
        <mxCell id="9Yyixxu93VMR50IHoDll-61" value="" style="verticalLabelPosition=bottom;verticalAlign=top;html=1;shape=mxgraph.basic.tick;fillColor=#000000;" parent="1" vertex="1">
          <mxGeometry x="332" y="671" width="21" height="19" as="geometry" />
        </mxCell>
        <mxCell id="9Yyixxu93VMR50IHoDll-64" value="" style="verticalLabelPosition=bottom;verticalAlign=top;html=1;shape=mxgraph.basic.x;fillColor=#121212;" parent="1" vertex="1">
          <mxGeometry x="435" y="756" width="13" height="13" as="geometry" />
        </mxCell>
        <mxCell id="9Yyixxu93VMR50IHoDll-65" value="" style="verticalLabelPosition=bottom;verticalAlign=top;html=1;shape=mxgraph.basic.x;fillColor=#121212;" parent="1" vertex="1">
          <mxGeometry x="336" y="795" width="13" height="13" as="geometry" />
        </mxCell>
        <mxCell id="9Yyixxu93VMR50IHoDll-66" value="" style="verticalLabelPosition=bottom;verticalAlign=top;html=1;shape=mxgraph.basic.x;fillColor=#121212;" parent="1" vertex="1">
          <mxGeometry x="336" y="755" width="13" height="13" as="geometry" />
        </mxCell>
        <mxCell id="mGCDzLo8QSS4jdiffCoD-1" value="&lt;font face=&quot;Times New Roman&quot;&gt;物理内核访问&lt;/font&gt;" style="rounded=1;whiteSpace=wrap;html=1;fillColor=#fff2cc;strokeColor=#d6b656;" vertex="1" parent="1">
          <mxGeometry x="428" y="135" width="111" height="47" as="geometry" />
        </mxCell>
        <mxCell id="mGCDzLo8QSS4jdiffCoD-2" value="&lt;font face=&quot;Times New Roman&quot;&gt;虚拟内核&lt;/font&gt;" style="rounded=1;whiteSpace=wrap;html=1;fillColor=#dae8fc;strokeColor=#6c8ebf;" vertex="1" parent="1">
          <mxGeometry x="650" y="135" width="100" height="47" as="geometry" />
        </mxCell>
        <mxCell id="mGCDzLo8QSS4jdiffCoD-3" value="" style="endArrow=classic;html=1;rounded=0;exitX=1;exitY=0.5;exitDx=0;exitDy=0;entryX=0;entryY=0.5;entryDx=0;entryDy=0;" edge="1" parent="1" source="mGCDzLo8QSS4jdiffCoD-1" target="mGCDzLo8QSS4jdiffCoD-2">
          <mxGeometry width="50" height="50" relative="1" as="geometry">
            <mxPoint x="437" y="314" as="sourcePoint" />
            <mxPoint x="487" y="264" as="targetPoint" />
          </mxGeometry>
        </mxCell>
        <mxCell id="mGCDzLo8QSS4jdiffCoD-4" value="&lt;font face=&quot;Times New Roman&quot;&gt;重定向&lt;/font&gt;" style="text;html=1;align=center;verticalAlign=middle;resizable=0;points=[];autosize=1;strokeColor=none;fillColor=none;" vertex="1" parent="1">
          <mxGeometry x="561" y="124" width="54" height="26" as="geometry" />
        </mxCell>
      </root>
    </mxGraphModel>
  </diagram>
</mxfile>
